<svg xmlns:mydata="http://www.w3.org/2000/svg" mydata:contrastcolor="63666A" mydata:template="Contrast"
     mydata:presentation="2.5" mydata:layouttype="undefined" mydata:specialfontid="undefined" mydata:id1="353"
     mydata:id2="518" mydata:companyname="lp" mydata:companytagline="" version="1.1" xmlns="http://www.w3.org/2000/svg"
     xmlns:xlink="http://www.w3.org/1999/xlink"
     viewBox="205.68228389061855 121.37689312755126 138.63543221876293 227.24621374489752" class="watermark-logo">
    <g fill="#101820" fill-rule="none" stroke="none" stroke-width="1" stroke-linecap="butt" stroke-linejoin="miter"
       stroke-miterlimit="10" stroke-dasharray="" stroke-dashoffset="0" font-family="none" font-weight="none"
       font-size="none" text-anchor="none" style="mix-blend-mode: normal">
            <g data-paper-data="{&quot;isIcon&quot;:&quot;true&quot;,&quot;iconType&quot;:&quot;icon&quot;,&quot;rawIconId&quot;:&quot;37726&quot;,&quot;selectedEffects&quot;:{&quot;container&quot;:&quot;&quot;,&quot;transformation&quot;:&quot;&quot;,&quot;pattern&quot;:&quot;&quot;},&quot;isDetailed&quot;:false,&quot;fillRule&quot;:&quot;evenodd&quot;,&quot;bounds&quot;:{&quot;x&quot;:222.45822306400248,&quot;y&quot;:121.37689312755126,&quot;width&quot;:105.0835538719951,&quot;height&quot;:104.89191825855815},&quot;iconStyle&quot;:&quot;standalone&quot;,&quot;suitableAsStandaloneIcon&quot;:true}"
               fill-rule="evenodd">
                <path d="M315.07654,139.95916l-6.15164,6.15164c6.22211,7.57581 9.9618,17.26193 9.9618,27.80725c0,10.54408 -3.74217,20.22773 -9.96304,27.80354l-7.9059,-7.9059c4.22678,-5.5162 6.74258,-12.41084 6.74258,-19.89764c0,-16.62526 -12.38859,-30.34901 -28.43527,-32.46796l0.00123,-11.20054c8.85782,0.87156 16.95287,4.38132 23.4791,9.74051l6.15164,-6.15164c-9.15947,-7.76744 -21.00781,-12.46153 -33.95766,-12.46153c-29.01756,0 -52.54115,23.5236 -52.54115,52.54115c0,27.56 21.22292,50.14652 48.21424,52.34953v-8.67733c-22.17608,-2.18077 -39.5604,-20.93116 -39.5604,-43.67221c0,-22.73858 17.38432,-41.49144 39.55916,-43.67221v11.1993c-14.62746,1.93228 -26.20753,13.51606 -28.13981,28.14599h8.77128c2.04725,-11.23145 11.88295,-19.7802 23.69668,-19.7802c13.2923,0 24.10712,10.81483 24.10712,24.10712c0,13.2923 -10.81483,24.10712 -24.10712,24.10712c-11.81372,0 -21.64943,-8.54876 -23.69668,-19.7802h-8.77128c2.11895,16.04669 15.84271,28.43404 32.46796,28.43404c7.48804,0 14.38391,-2.51703 19.90012,-6.74258l7.90466,7.90343c-6.52746,5.3592 -14.61757,8.88007 -23.47663,9.75164v8.67733c26.99132,-2.20178 48.21424,-24.78953 48.21424,-52.34953c-0.00123,-12.95232 -4.69656,-24.80066 -12.46524,-33.96013zM287.8256,173.91805c0,0.20991 -0.00515,0.41971 -0.01545,0.62938c-0.0103,0.20967 -0.02576,0.41893 -0.04636,0.62777c-0.02052,0.20893 -0.04619,0.4172 -0.07702,0.62481c-0.03083,0.20769 -0.06672,0.41448 -0.10768,0.62036c-0.04088,0.20588 -0.08683,0.4106 -0.13784,0.61418c-0.05102,0.20365 -0.10698,0.40591 -0.16789,0.60676c-0.06099,0.20085 -0.12684,0.4001 -0.19756,0.59773c-0.07072,0.19764 -0.14621,0.39342 -0.22648,0.58735c-0.08036,0.19393 -0.16541,0.3858 -0.25516,0.57561c-0.08975,0.18972 -0.18412,0.37714 -0.28311,0.56225c-0.0989,0.18519 -0.20233,0.36779 -0.3103,0.54779c-0.10788,0.18008 -0.22014,0.35736 -0.33676,0.53184c-0.11662,0.17456 -0.23745,0.34616 -0.36247,0.51478c-0.12503,0.16854 -0.25413,0.33396 -0.38732,0.49624c-0.13319,0.16228 -0.27025,0.32118 -0.41118,0.4767c-0.14102,0.15552 -0.28574,0.3075 -0.43417,0.45593c-0.14844,0.14844 -0.30041,0.29316 -0.45593,0.43417c-0.15552,0.14093 -0.31442,0.27799 -0.4767,0.41118c-0.16228,0.13319 -0.32769,0.26229 -0.49624,0.38732c-0.16863,0.12503 -0.34022,0.24585 -0.51478,0.36247c-0.17448,0.11662 -0.35176,0.22887 -0.53184,0.33676c-0.18,0.10797 -0.3626,0.2114 -0.54779,0.3103c-0.18511,0.09898 -0.37253,0.19335 -0.56225,0.28311c-0.18981,0.08975 -0.38167,0.17481 -0.57561,0.25516c-0.19393,0.08027 -0.38971,0.15577 -0.58735,0.22648c-0.19764,0.07072 -0.39688,0.13657 -0.59773,0.19756c-0.20085,0.06091 -0.40311,0.11687 -0.60676,0.16789c-0.20357,0.05102 -0.4083,0.09697 -0.61418,0.13784c-0.20588,0.04096 -0.41266,0.07685 -0.62036,0.10768c-0.20761,0.03083 -0.41588,0.0565 -0.62481,0.07702c-0.20885,0.02061 -0.41811,0.03606 -0.62777,0.04636c-0.20967,0.0103 -0.41946,0.01545 -0.62938,0.01545c-0.20991,0 -0.41971,-0.00515 -0.62938,-0.01545c-0.20967,-0.0103 -0.41893,-0.02576 -0.62777,-0.04636c-0.20893,-0.02052 -0.4172,-0.04619 -0.62481,-0.07702c-0.20769,-0.03083 -0.41448,-0.06672 -0.62036,-0.10768c-0.20588,-0.04088 -0.4106,-0.08683 -0.61418,-0.13784c-0.20365,-0.05102 -0.40591,-0.10698 -0.60676,-0.16789c-0.20085,-0.06099 -0.4001,-0.12684 -0.59773,-0.19756c-0.19764,-0.07072 -0.39342,-0.14621 -0.58735,-0.22648c-0.19393,-0.08036 -0.3858,-0.16541 -0.57561,-0.25516c-0.18972,-0.08975 -0.37714,-0.18412 -0.56225,-0.28311c-0.18519,-0.0989 -0.36779,-0.20233 -0.54779,-0.3103c-0.18008,-0.10788 -0.35736,-0.22014 -0.53184,-0.33676c-0.17456,-0.11662 -0.34616,-0.23745 -0.51478,-0.36247c-0.16854,-0.12503 -0.33396,-0.25413 -0.49624,-0.38732c-0.16228,-0.13319 -0.32118,-0.27025 -0.4767,-0.41118c-0.15552,-0.14102 -0.3075,-0.28574 -0.45593,-0.43417c-0.14844,-0.14844 -0.29316,-0.30041 -0.43417,-0.45593c-0.14093,-0.15552 -0.27799,-0.31442 -0.41118,-0.4767c-0.13319,-0.16228 -0.26229,-0.32769 -0.38732,-0.49624c-0.12503,-0.16863 -0.24585,-0.34022 -0.36247,-0.51478c-0.11662,-0.17448 -0.22887,-0.35176 -0.33676,-0.53184c-0.10797,-0.18 -0.2114,-0.3626 -0.3103,-0.54779c-0.09898,-0.18511 -0.19335,-0.37253 -0.28311,-0.56225c-0.08975,-0.18981 -0.17481,-0.38167 -0.25516,-0.57561c-0.08027,-0.19393 -0.15577,-0.38971 -0.22648,-0.58735c-0.07072,-0.19764 -0.13657,-0.39688 -0.19756,-0.59773c-0.06091,-0.20085 -0.11687,-0.40311 -0.16789,-0.60676c-0.05102,-0.20357 -0.09697,-0.4083 -0.13784,-0.61418c-0.04096,-0.20588 -0.07685,-0.41266 -0.10768,-0.62036c-0.03083,-0.20761 -0.0565,-0.41588 -0.07702,-0.62481c-0.02061,-0.20885 -0.03606,-0.41811 -0.04636,-0.62777c-0.0103,-0.20967 -0.01545,-0.41946 -0.01545,-0.62938c0,-0.20991 0.00515,-0.41971 0.01545,-0.62938c0.0103,-0.20967 0.02576,-0.41893 0.04636,-0.62777c0.02052,-0.20893 0.04619,-0.4172 0.07702,-0.62481c0.03083,-0.20769 0.06672,-0.41448 0.10768,-0.62036c0.04088,-0.20588 0.08683,-0.4106 0.13784,-0.61418c0.05102,-0.20365 0.10698,-0.40591 0.16789,-0.60676c0.06099,-0.20085 0.12684,-0.4001 0.19756,-0.59773c0.07072,-0.19764 0.14621,-0.39342 0.22648,-0.58735c0.08036,-0.19393 0.16541,-0.3858 0.25516,-0.57561c0.08975,-0.18972 0.18412,-0.37714 0.28311,-0.56225c0.0989,-0.18519 0.20233,-0.36779 0.3103,-0.54779c0.10788,-0.18008 0.22014,-0.35736 0.33676,-0.53184c0.11662,-0.17456 0.23745,-0.34616 0.36247,-0.51478c0.12503,-0.16854 0.25413,-0.33396 0.38732,-0.49624c0.13319,-0.16228 0.27025,-0.32118 0.41118,-0.4767c0.14102,-0.15552 0.28574,-0.3075 0.43417,-0.45593c0.14844,-0.14844 0.30041,-0.29316 0.45593,-0.43417c0.15552,-0.14093 0.31442,-0.27799 0.4767,-0.41118c0.16228,-0.13319 0.32769,-0.26229 0.49624,-0.38732c0.16863,-0.12503 0.34022,-0.24585 0.51478,-0.36247c0.17448,-0.11662 0.35176,-0.22887 0.53184,-0.33676c0.18,-0.10797 0.3626,-0.2114 0.54779,-0.3103c0.18511,-0.09898 0.37253,-0.19335 0.56225,-0.28311c0.18981,-0.08975 0.38167,-0.17481 0.57561,-0.25516c0.19393,-0.08027 0.38971,-0.15577 0.58735,-0.22648c0.19764,-0.07072 0.39688,-0.13657 0.59773,-0.19756c0.20085,-0.06091 0.40311,-0.11687 0.60676,-0.16789c0.20357,-0.05102 0.4083,-0.09697 0.61418,-0.13784c0.20588,-0.04096 0.41266,-0.07685 0.62036,-0.10768c0.20761,-0.03083 0.41588,-0.0565 0.62481,-0.07702c0.20885,-0.02061 0.41811,-0.03606 0.62777,-0.04636c0.20967,-0.0103 0.41946,-0.01545 0.62938,-0.01545c0.20991,0 0.41971,0.00515 0.62938,0.01545c0.20967,0.0103 0.41893,0.02576 0.62777,0.04636c0.20893,0.02052 0.4172,0.04619 0.62481,0.07702c0.20769,0.03083 0.41448,0.06672 0.62036,0.10768c0.20588,0.04088 0.4106,0.08683 0.61418,0.13784c0.20365,0.05102 0.40591,0.10698 0.60676,0.16789c0.20085,0.06099 0.4001,0.12684 0.59773,0.19756c0.19764,0.07072 0.39342,0.14621 0.58735,0.22648c0.19393,0.08036 0.3858,0.16541 0.57561,0.25516c0.18972,0.08975 0.37714,0.18412 0.56225,0.28311c0.18519,0.0989 0.36779,0.20233 0.54779,0.3103c0.18008,0.10788 0.35736,0.22014 0.53184,0.33676c0.17456,0.11662 0.34616,0.23745 0.51478,0.36247c0.16854,0.12503 0.33396,0.25413 0.49624,0.38732c0.16228,0.13319 0.32118,0.27025 0.4767,0.41118c0.15552,0.14102 0.3075,0.28574 0.45593,0.43417c0.14844,0.14844 0.29316,0.30041 0.43417,0.45593c0.14093,0.15552 0.27799,0.31442 0.41118,0.4767c0.13319,0.16228 0.26229,0.32769 0.38732,0.49624c0.12503,0.16863 0.24585,0.34022 0.36247,0.51478c0.11662,0.17448 0.22887,0.35176 0.33676,0.53184c0.10797,0.18 0.2114,0.3626 0.3103,0.54779c0.09898,0.18511 0.19335,0.37253 0.28311,0.56225c0.08975,0.18981 0.17481,0.38167 0.25516,0.57561c0.08027,0.19393 0.15577,0.38971 0.22648,0.58735c0.07072,0.19764 0.13657,0.39688 0.19756,0.59773c0.06091,0.20085 0.11687,0.40311 0.16789,0.60676c0.05102,0.20357 0.09697,0.4083 0.13784,0.61418c0.04096,0.20588 0.07685,0.41266 0.10768,0.62036c0.03083,0.20761 0.0565,0.41588 0.07702,0.62481c0.02061,0.20885 0.03606,0.41811 0.04636,0.62777c0.0103,0.20967 0.01545,0.41946 0.01545,0.62938z"
                      data-paper-data="{&quot;isPathIcon&quot;:true}" style="fill: rgb(255, 255, 255);"></path>
            </g>
    </g>
</svg>