<svg xmlns:mydata="http://www.w3.org/2000/svg" mydata:contrastcolor="63666A" mydata:template="Contrast"
     mydata:presentation="2.5" mydata:layouttype="undefined" mydata:specialfontid="undefined" mydata:id1="353"
     mydata:id2="518" mydata:companyname="lp" mydata:companytagline="" version="1.1" xmlns="http://www.w3.org/2000/svg"
     xmlns:xlink="http://www.w3.org/1999/xlink"
     viewBox="205.68228389061855 121.37689312755126 138.63543221876293 227.24621374489752" class="watermark-logo">
    <g fill="#101820" fill-rule="none" stroke="none" stroke-width="1" stroke-linecap="butt" stroke-linejoin="miter"
       stroke-miterlimit="10" stroke-dasharray="" stroke-dashoffset="0" font-family="none" font-weight="none"
       font-size="none" text-anchor="none" style="mix-blend-mode: normal">
        <g data-paper-data="{&quot;isGlobalGroup&quot;:true,&quot;bounds&quot;:{&quot;x&quot;:205.68228389061855,&quot;y&quot;:121.37689312755126,&quot;width&quot;:138.63543221876293,&quot;height&quot;:227.24621374489752}}">
            <g data-paper-data="{&quot;isPrimaryText&quot;:true}" fill-rule="nonzero">
                <path d="M209.90439,330.40375c-0.05784,-0.23135 -0.05784,-0.57837 0,-0.98323zM209.90439,276.61529c0,-3.41239 1.15674,-5.95722 3.41239,-7.75017l13.76522,-8.79123v49.27717c0,2.94969 -1.0989,5.03182 -3.23888,6.2464c-2.94969,1.67727 -5.20534,3.00753 -6.82477,3.99076c-0.75188,0.52053 -1.50376,1.04107 -2.13997,1.5616c0,-0.05784 -0.05784,0 -0.23135,0.17351l-1.61944,1.5616c-0.11567,0.17351 -0.17351,0.23135 -0.17351,0.17351c-0.05784,0.11567 -0.17351,0.23135 -0.34702,0.40486c-0.11567,0.17351 -0.17351,0.23135 -0.17351,0.23135l-0.28919,0.40486c-0.11567,0.11567 -0.17351,0.17351 -0.17351,0.23135l-0.28919,0.40486l-0.11567,0.23135l-0.23135,0.40486c0,0 -0.05784,0.05784 -0.11567,0.17351c-0.23135,0.40486 -0.40486,0.86756 -0.57837,1.27242c-0.05784,0.17351 -0.11567,0.28919 -0.11567,0.23135c0,0.05784 -0.05784,0.11567 -0.11567,0.28919c-0.05784,0.11567 -0.05784,0.17351 -0.05784,0.23135c0,0.05784 0,0.17351 -0.05784,0.23135c-0.05784,0.11567 -0.05784,0.17351 -0.05784,0.23135c-0.05784,0.05784 -0.05784,0.17351 -0.05784,0.23135c0,0.05784 0,0.17351 -0.05784,0.23135c0,0.11567 0,0.17351 -0.05784,0.23135v0.23135l-0.05784,0.11567v0.34702zM222.51287,321.14983c1.04107,-0.63621 2.13997,-1.27242 3.35455,-1.90862c3.5859,-2.0243 5.37885,-5.32101 5.37885,-9.89014v-49.27717c0,-1.61944 -0.69404,-2.83402 -2.13997,-3.64373c-0.63621,-0.34702 -1.27242,-0.52053 -2.0243,-0.52053c-0.80972,0 -1.5616,0.23135 -2.25565,0.63621l-13.76522,8.79123l-0.28919,0.23135c-3.41239,2.60267 -5.08966,6.30424 -5.08966,11.04688v44.53454v8.84907c0,0.28919 0,0.52053 0.05784,0.75188c0.17351,2.60267 1.15674,4.56913 2.94969,6.01505c1.73511,1.38809 4.04859,2.08213 6.94045,2.08213h50.95445v-4.33778c0,-3.64373 -1.33025,-6.82477 -3.93292,-9.42744c-2.60267,-2.60267 -5.78371,-3.93292 -9.42744,-3.93292z"
                      data-paper-data="{&quot;glyphName&quot;:&quot;L&quot;,&quot;glyphIndex&quot;:0,&quot;firstGlyphOfWord&quot;:true,&quot;word&quot;:1}"
                      style="fill: rgb(255, 255, 255);"></path>
                <path d="M305.91391,289.85998v-1.21458c0,-4.97399 -1.96646,-8.55988 -5.89938,-10.75769c-1.79295,-0.98323 -3.35455,-1.90862 -4.74264,-2.71834h21.05269c3.06536,0 5.32101,0.75188 6.88261,2.31348c1.27242,1.21458 1.90862,2.77618 1.90862,4.62696c0,5.1475 -2.89185,7.75017 -8.67556,7.75017zM301.34478,344.0533l-14.92196,-9.54311c-2.48699,-1.90862 -3.70157,-4.74264 -3.70157,-8.38637v-59.28299c0.40486,4.10643 3.00753,7.69233 7.75017,10.69986c1.73511,1.0989 4.16427,2.54483 7.34531,4.33778c2.37132,1.33025 3.52806,3.5859 3.52806,6.76694zM320.14183,255.96746h-29.61257c-3.41239,0 -6.2464,0.86756 -8.38637,2.60267c-2.6605,2.13997 -3.99076,5.49452 -3.99076,10.00581v57.54787c0,2.60267 0.57837,5.08966 1.79295,7.46098c1.0989,2.13997 2.42916,3.75941 4.04859,4.80048l14.92196,9.48528c1.50376,0.98323 3.06536,0.98323 4.62696,0.11567c1.5616,-0.86756 2.37132,-2.13997 2.37132,-3.93292v-35.28061l13.53387,-0.11567c6.76694,0 12.66632,-2.71834 17.58247,-8.15503c4.85831,-5.26317 7.28747,-11.3939 7.28747,-18.39219c0,-6.82477 -2.37132,-12.83983 -7.05612,-17.98733c-4.74264,-5.26317 -10.41067,-7.98151 -17.06193,-8.15503c-0.05784,0 -0.05784,0 -0.05784,0z"
                      data-paper-data="{&quot;glyphName&quot;:&quot;P&quot;,&quot;glyphIndex&quot;:1,&quot;lastGlyphOfWord&quot;:true,&quot;word&quot;:1}"
                      style="fill: rgb(255, 255, 255);"></path>
            </g>
            <g data-paper-data="{&quot;isIcon&quot;:&quot;true&quot;,&quot;iconType&quot;:&quot;icon&quot;,&quot;rawIconId&quot;:&quot;37726&quot;,&quot;selectedEffects&quot;:{&quot;container&quot;:&quot;&quot;,&quot;transformation&quot;:&quot;&quot;,&quot;pattern&quot;:&quot;&quot;},&quot;isDetailed&quot;:false,&quot;fillRule&quot;:&quot;evenodd&quot;,&quot;bounds&quot;:{&quot;x&quot;:222.45822306400248,&quot;y&quot;:121.37689312755126,&quot;width&quot;:105.0835538719951,&quot;height&quot;:104.89191825855815},&quot;iconStyle&quot;:&quot;standalone&quot;,&quot;suitableAsStandaloneIcon&quot;:true}"
               fill-rule="evenodd">
                <path d="M315.07654,139.95916l-6.15164,6.15164c6.22211,7.57581 9.9618,17.26193 9.9618,27.80725c0,10.54408 -3.74217,20.22773 -9.96304,27.80354l-7.9059,-7.9059c4.22678,-5.5162 6.74258,-12.41084 6.74258,-19.89764c0,-16.62526 -12.38859,-30.34901 -28.43527,-32.46796l0.00123,-11.20054c8.85782,0.87156 16.95287,4.38132 23.4791,9.74051l6.15164,-6.15164c-9.15947,-7.76744 -21.00781,-12.46153 -33.95766,-12.46153c-29.01756,0 -52.54115,23.5236 -52.54115,52.54115c0,27.56 21.22292,50.14652 48.21424,52.34953v-8.67733c-22.17608,-2.18077 -39.5604,-20.93116 -39.5604,-43.67221c0,-22.73858 17.38432,-41.49144 39.55916,-43.67221v11.1993c-14.62746,1.93228 -26.20753,13.51606 -28.13981,28.14599h8.77128c2.04725,-11.23145 11.88295,-19.7802 23.69668,-19.7802c13.2923,0 24.10712,10.81483 24.10712,24.10712c0,13.2923 -10.81483,24.10712 -24.10712,24.10712c-11.81372,0 -21.64943,-8.54876 -23.69668,-19.7802h-8.77128c2.11895,16.04669 15.84271,28.43404 32.46796,28.43404c7.48804,0 14.38391,-2.51703 19.90012,-6.74258l7.90466,7.90343c-6.52746,5.3592 -14.61757,8.88007 -23.47663,9.75164v8.67733c26.99132,-2.20178 48.21424,-24.78953 48.21424,-52.34953c-0.00123,-12.95232 -4.69656,-24.80066 -12.46524,-33.96013zM287.8256,173.91805c0,0.20991 -0.00515,0.41971 -0.01545,0.62938c-0.0103,0.20967 -0.02576,0.41893 -0.04636,0.62777c-0.02052,0.20893 -0.04619,0.4172 -0.07702,0.62481c-0.03083,0.20769 -0.06672,0.41448 -0.10768,0.62036c-0.04088,0.20588 -0.08683,0.4106 -0.13784,0.61418c-0.05102,0.20365 -0.10698,0.40591 -0.16789,0.60676c-0.06099,0.20085 -0.12684,0.4001 -0.19756,0.59773c-0.07072,0.19764 -0.14621,0.39342 -0.22648,0.58735c-0.08036,0.19393 -0.16541,0.3858 -0.25516,0.57561c-0.08975,0.18972 -0.18412,0.37714 -0.28311,0.56225c-0.0989,0.18519 -0.20233,0.36779 -0.3103,0.54779c-0.10788,0.18008 -0.22014,0.35736 -0.33676,0.53184c-0.11662,0.17456 -0.23745,0.34616 -0.36247,0.51478c-0.12503,0.16854 -0.25413,0.33396 -0.38732,0.49624c-0.13319,0.16228 -0.27025,0.32118 -0.41118,0.4767c-0.14102,0.15552 -0.28574,0.3075 -0.43417,0.45593c-0.14844,0.14844 -0.30041,0.29316 -0.45593,0.43417c-0.15552,0.14093 -0.31442,0.27799 -0.4767,0.41118c-0.16228,0.13319 -0.32769,0.26229 -0.49624,0.38732c-0.16863,0.12503 -0.34022,0.24585 -0.51478,0.36247c-0.17448,0.11662 -0.35176,0.22887 -0.53184,0.33676c-0.18,0.10797 -0.3626,0.2114 -0.54779,0.3103c-0.18511,0.09898 -0.37253,0.19335 -0.56225,0.28311c-0.18981,0.08975 -0.38167,0.17481 -0.57561,0.25516c-0.19393,0.08027 -0.38971,0.15577 -0.58735,0.22648c-0.19764,0.07072 -0.39688,0.13657 -0.59773,0.19756c-0.20085,0.06091 -0.40311,0.11687 -0.60676,0.16789c-0.20357,0.05102 -0.4083,0.09697 -0.61418,0.13784c-0.20588,0.04096 -0.41266,0.07685 -0.62036,0.10768c-0.20761,0.03083 -0.41588,0.0565 -0.62481,0.07702c-0.20885,0.02061 -0.41811,0.03606 -0.62777,0.04636c-0.20967,0.0103 -0.41946,0.01545 -0.62938,0.01545c-0.20991,0 -0.41971,-0.00515 -0.62938,-0.01545c-0.20967,-0.0103 -0.41893,-0.02576 -0.62777,-0.04636c-0.20893,-0.02052 -0.4172,-0.04619 -0.62481,-0.07702c-0.20769,-0.03083 -0.41448,-0.06672 -0.62036,-0.10768c-0.20588,-0.04088 -0.4106,-0.08683 -0.61418,-0.13784c-0.20365,-0.05102 -0.40591,-0.10698 -0.60676,-0.16789c-0.20085,-0.06099 -0.4001,-0.12684 -0.59773,-0.19756c-0.19764,-0.07072 -0.39342,-0.14621 -0.58735,-0.22648c-0.19393,-0.08036 -0.3858,-0.16541 -0.57561,-0.25516c-0.18972,-0.08975 -0.37714,-0.18412 -0.56225,-0.28311c-0.18519,-0.0989 -0.36779,-0.20233 -0.54779,-0.3103c-0.18008,-0.10788 -0.35736,-0.22014 -0.53184,-0.33676c-0.17456,-0.11662 -0.34616,-0.23745 -0.51478,-0.36247c-0.16854,-0.12503 -0.33396,-0.25413 -0.49624,-0.38732c-0.16228,-0.13319 -0.32118,-0.27025 -0.4767,-0.41118c-0.15552,-0.14102 -0.3075,-0.28574 -0.45593,-0.43417c-0.14844,-0.14844 -0.29316,-0.30041 -0.43417,-0.45593c-0.14093,-0.15552 -0.27799,-0.31442 -0.41118,-0.4767c-0.13319,-0.16228 -0.26229,-0.32769 -0.38732,-0.49624c-0.12503,-0.16863 -0.24585,-0.34022 -0.36247,-0.51478c-0.11662,-0.17448 -0.22887,-0.35176 -0.33676,-0.53184c-0.10797,-0.18 -0.2114,-0.3626 -0.3103,-0.54779c-0.09898,-0.18511 -0.19335,-0.37253 -0.28311,-0.56225c-0.08975,-0.18981 -0.17481,-0.38167 -0.25516,-0.57561c-0.08027,-0.19393 -0.15577,-0.38971 -0.22648,-0.58735c-0.07072,-0.19764 -0.13657,-0.39688 -0.19756,-0.59773c-0.06091,-0.20085 -0.11687,-0.40311 -0.16789,-0.60676c-0.05102,-0.20357 -0.09697,-0.4083 -0.13784,-0.61418c-0.04096,-0.20588 -0.07685,-0.41266 -0.10768,-0.62036c-0.03083,-0.20761 -0.0565,-0.41588 -0.07702,-0.62481c-0.02061,-0.20885 -0.03606,-0.41811 -0.04636,-0.62777c-0.0103,-0.20967 -0.01545,-0.41946 -0.01545,-0.62938c0,-0.20991 0.00515,-0.41971 0.01545,-0.62938c0.0103,-0.20967 0.02576,-0.41893 0.04636,-0.62777c0.02052,-0.20893 0.04619,-0.4172 0.07702,-0.62481c0.03083,-0.20769 0.06672,-0.41448 0.10768,-0.62036c0.04088,-0.20588 0.08683,-0.4106 0.13784,-0.61418c0.05102,-0.20365 0.10698,-0.40591 0.16789,-0.60676c0.06099,-0.20085 0.12684,-0.4001 0.19756,-0.59773c0.07072,-0.19764 0.14621,-0.39342 0.22648,-0.58735c0.08036,-0.19393 0.16541,-0.3858 0.25516,-0.57561c0.08975,-0.18972 0.18412,-0.37714 0.28311,-0.56225c0.0989,-0.18519 0.20233,-0.36779 0.3103,-0.54779c0.10788,-0.18008 0.22014,-0.35736 0.33676,-0.53184c0.11662,-0.17456 0.23745,-0.34616 0.36247,-0.51478c0.12503,-0.16854 0.25413,-0.33396 0.38732,-0.49624c0.13319,-0.16228 0.27025,-0.32118 0.41118,-0.4767c0.14102,-0.15552 0.28574,-0.3075 0.43417,-0.45593c0.14844,-0.14844 0.30041,-0.29316 0.45593,-0.43417c0.15552,-0.14093 0.31442,-0.27799 0.4767,-0.41118c0.16228,-0.13319 0.32769,-0.26229 0.49624,-0.38732c0.16863,-0.12503 0.34022,-0.24585 0.51478,-0.36247c0.17448,-0.11662 0.35176,-0.22887 0.53184,-0.33676c0.18,-0.10797 0.3626,-0.2114 0.54779,-0.3103c0.18511,-0.09898 0.37253,-0.19335 0.56225,-0.28311c0.18981,-0.08975 0.38167,-0.17481 0.57561,-0.25516c0.19393,-0.08027 0.38971,-0.15577 0.58735,-0.22648c0.19764,-0.07072 0.39688,-0.13657 0.59773,-0.19756c0.20085,-0.06091 0.40311,-0.11687 0.60676,-0.16789c0.20357,-0.05102 0.4083,-0.09697 0.61418,-0.13784c0.20588,-0.04096 0.41266,-0.07685 0.62036,-0.10768c0.20761,-0.03083 0.41588,-0.0565 0.62481,-0.07702c0.20885,-0.02061 0.41811,-0.03606 0.62777,-0.04636c0.20967,-0.0103 0.41946,-0.01545 0.62938,-0.01545c0.20991,0 0.41971,0.00515 0.62938,0.01545c0.20967,0.0103 0.41893,0.02576 0.62777,0.04636c0.20893,0.02052 0.4172,0.04619 0.62481,0.07702c0.20769,0.03083 0.41448,0.06672 0.62036,0.10768c0.20588,0.04088 0.4106,0.08683 0.61418,0.13784c0.20365,0.05102 0.40591,0.10698 0.60676,0.16789c0.20085,0.06099 0.4001,0.12684 0.59773,0.19756c0.19764,0.07072 0.39342,0.14621 0.58735,0.22648c0.19393,0.08036 0.3858,0.16541 0.57561,0.25516c0.18972,0.08975 0.37714,0.18412 0.56225,0.28311c0.18519,0.0989 0.36779,0.20233 0.54779,0.3103c0.18008,0.10788 0.35736,0.22014 0.53184,0.33676c0.17456,0.11662 0.34616,0.23745 0.51478,0.36247c0.16854,0.12503 0.33396,0.25413 0.49624,0.38732c0.16228,0.13319 0.32118,0.27025 0.4767,0.41118c0.15552,0.14102 0.3075,0.28574 0.45593,0.43417c0.14844,0.14844 0.29316,0.30041 0.43417,0.45593c0.14093,0.15552 0.27799,0.31442 0.41118,0.4767c0.13319,0.16228 0.26229,0.32769 0.38732,0.49624c0.12503,0.16863 0.24585,0.34022 0.36247,0.51478c0.11662,0.17448 0.22887,0.35176 0.33676,0.53184c0.10797,0.18 0.2114,0.3626 0.3103,0.54779c0.09898,0.18511 0.19335,0.37253 0.28311,0.56225c0.08975,0.18981 0.17481,0.38167 0.25516,0.57561c0.08027,0.19393 0.15577,0.38971 0.22648,0.58735c0.07072,0.19764 0.13657,0.39688 0.19756,0.59773c0.06091,0.20085 0.11687,0.40311 0.16789,0.60676c0.05102,0.20357 0.09697,0.4083 0.13784,0.61418c0.04096,0.20588 0.07685,0.41266 0.10768,0.62036c0.03083,0.20761 0.0565,0.41588 0.07702,0.62481c0.02061,0.20885 0.03606,0.41811 0.04636,0.62777c0.0103,0.20967 0.01545,0.41946 0.01545,0.62938z"
                      data-paper-data="{&quot;isPathIcon&quot;:true}" style="fill: rgb(255, 255, 255);"></path>
            </g>
        </g>
    </g>
</svg>